<?xml version="1.0" encoding="UTF-8"?>
<svg id="Capa_1" data-name="Capa 1" xmlns="http://www.w3.org/2000/svg" viewBox="0 0 313.43 450.81">
  <defs>
    <style>
      .cls-1 {
        fill: #e00206;
      }

      .cls-1, .cls-2 {
        stroke-width: 0px;
      }

      .cls-2 {
        fill: #fff;
      }
    </style>
  </defs>
  <polygon class="cls-1" points="44.87 66.92 77.87 31.28 113.51 17.93 156.72 7.52 209.21 17.93 246.18 37.22 267.3 66.92 295.5 113.13 301.62 171.87 260.04 290.01 176.21 423.34 151.8 443.14 44.87 265.59 9.22 168.57 21.1 98.61 44.87 66.92"/>
  <g id="_图层_1" data-name="图层_1">
    <path class="cls-2" d="m178.23,437.78c-2.05,3.9-5.13,7.18-8.88,9.47-3.71,2.26-8.04,3.57-12.64,3.57s-8.93-1.3-12.64-3.57c-3.69-2.25-6.73-5.46-8.77-9.28h0s0,0,0,0l-.2-.36c-8.55-14.24-18.41-29.91-28.78-46.39C58.53,315.28,0,222.3,0,156.72c0-43.27,17.55-82.45,45.91-110.81C74.27,17.55,113.45,0,156.72,0s82.45,17.55,110.81,45.91c28.36,28.36,45.91,67.54,45.91,110.81,0,65.58-58.53,158.57-106.33,234.51-10.41,16.54-20.31,32.26-28.88,46.55h0Zm-18.19-5.8c1.01-.61,1.83-1.5,2.38-2.56h0c.09-.16.18-.33.28-.49,8.78-14.65,18.77-30.52,29.28-47.22,46.54-73.94,103.52-164.48,103.52-224.99,0-38.32-15.54-73.02-40.65-98.13-25.12-25.12-59.81-40.65-98.13-40.65s-73.02,15.54-98.13,40.65c-25.12,25.12-40.65,59.81-40.65,98.13,0,60.51,56.98,151.04,103.52,224.97,10.39,16.51,20.27,32.21,28.98,46.72.14.21.28.43.41.66h0s-.01.02-.01.02c.07.11.13.23.19.34.54,1.06,1.37,1.94,2.37,2.55.94.57,2.08.9,3.33.9,1.24,0,2.38-.33,3.32-.9h0Z"/>
    <path class="cls-2" d="m156.72,85.98c19.8,0,37.72,8.03,50.7,21,12.97,12.97,21,30.9,21,50.7s-8.03,37.72-21,50.7c-12.98,12.97-30.9,21-50.7,21s-37.72-8.03-50.7-21c-12.98-12.98-21-30.9-21-50.7s8.03-37.72,21-50.7c12.97-12.98,30.9-21,50.7-21Zm-9.24,92.67c-9.73-9.73,27.96,16.76,13.11,16.76s4.01-37.89-5.72-28.16c-9.73,9.73,62.48-27.61,62.48-12.76s-41.8,44-60.64,49.28c-13.25,3.71-21.97-52.82-7.13-52.82s-9.73,18.98,0,9.26c9.73-9.73,60.9,12.31,60.9-2.53s-53.28,30.7-63.01,20.97Z"/>
  </g>
</svg>