<svg width="50px" height="50px" viewBox="0 0 20 20" fill="none" xmlns="http://www.w3.org/2000/svg"><path fill-rule="evenodd" clip-rule="evenodd" d="M9.38256 3.70771V9.41891L9.38819 9.50267C9.42907 9.80396 9.68733 10.0362 9.99984 10.0362C10.3408 10.0362 10.6171 9.75982 10.6171 9.41891V3.70771L12.1354 5.22576L12.2046 5.28553C12.4463 5.46483 12.7892 5.44491 13.0083 5.22576C13.2494 4.9847 13.2494 4.59385 13.0083 4.35279L10.4363 1.78077L10.4363 1.78077C10.4149 1.75935 10.3919 1.7395 10.3675 1.7214L10.3671 1.72101C10.326 1.69052 10.282 1.6658 10.2362 1.64683C10.1634 1.61664 10.0836 1.59998 9.99984 1.59998C9.91598 1.59998 9.83603 1.6167 9.76313 1.64699C9.69154 1.67668 9.6244 1.72042 9.56593 1.77821M9.38256 3.70771L7.86431 5.22576C7.64516 5.44491 7.30223 5.46483 7.06057 5.28553L6.99134 5.22576C6.77219 5.00661 6.75227 4.66368 6.93157 4.42202L6.99134 4.35279L9.56274 1.78139M6.39902 6.74401C6.73993 6.74401 7.0163 7.02037 7.0163 7.36129C7.0163 7.6738 6.78408 7.93207 6.48278 7.97294L6.39902 7.97857H5.37021C5.16819 7.97857 5.00016 8.12415 4.96532 8.31613L4.95869 8.3901V16.6206C4.95869 16.8226 5.10427 16.9906 5.29624 17.0254L5.37021 17.0321H14.6295C14.8315 17.0321 14.9995 16.8865 15.0344 16.6945L15.041 16.6206V8.3901C15.041 8.18807 14.8954 8.02005 14.7034 7.98521L14.6295 7.97857H13.6007C13.2597 7.97857 12.9834 7.70221 12.9834 7.36129C12.9834 7.04878 13.2156 6.79052 13.5169 6.74964L13.6007 6.74401H14.6295C15.4973 6.74401 16.2082 7.41551 16.271 8.26725L16.2756 8.3901V16.6206C16.2756 17.4883 15.6041 18.1993 14.7523 18.2621L14.6295 18.2666H5.37021C4.50242 18.2666 3.79147 17.5951 3.72864 16.7434L3.72412 16.6206V8.3901C3.72412 7.52231 4.39563 6.81136 5.24736 6.74852L5.37021 6.74401H6.39902Z" fill="#1D1D1D"></path></svg>
